<?xml version="1.0" encoding="utf-8"?>
<!-- Generator: Adobe Illustrator 16.0.0, SVG Export Plug-In . SVG Version: 6.00 Build 0)  -->
<!DOCTYPE svg PUBLIC "-//W3C//DTD SVG 1.1//EN" "http://www.w3.org/Graphics/SVG/1.1/DTD/svg11.dtd">
<svg version="1.1" id="Layer_2" xmlns="http://www.w3.org/2000/svg" xmlns:xlink="http://www.w3.org/1999/xlink" x="0px" y="0px"
	 width="864px" height="864px" viewBox="0 0 864 864" enable-background="new 0 0 864 864" xml:space="preserve">
<path fill-rule="evenodd" clip-rule="evenodd" d="M693.334,54.98c0,14.449-0.745,38.97-0.745,38.97H651.04v37.939
	c-0.045,0-0.745-0.289-0.745-0.289h-41.549v38.071l-42.293,0.522v38.26c-0.188,0-42.361,0.334-42.361,0.334
	s-0.47,37.448-0.705,37.448c0,0.382-39.239,0.146-39.239,0.146v37.606h-38.563v39.878h-38.943v37.662h-39.978v38.966h-36.562
	l-0.351,39.856h-40.592v39.033h-36.991v-36.96h-38.856c0-13.354,0-26.708,0-40.118c-27.804,0-52.528,0-78.081,0
	c0,26.491,0,51.817,0,78.363c12.833,0,35.765,0,35.765,0l0.679,83.403h42.549l-0.221,35.689h-41.502l-0.838,37.507l-37.989,0.523
	v40.762c-27.122,0-52.51,0-78.159,0c0,40.27,0,78.046,0,115.262c39.426,0,77.216,0,116.603,0c0-26.677,0-78.716,0-78.716h40.24
	l0.281-38.151l39.007,0.026v-41.347h36.801c0,0.248,0.549,41.133,0.549,41.133h80.089l-0.125,37.931c0,0,52.51,0,78.067,0
	c0-26.471,0-51.775,0-78.372c-13.406,0-25.602,0-37.698,0l-0.115-39.857h-38.728v-37.958h35.802v-39.855h40.943l0.274-38.587
	l36.287-0.38l-0.504-37.403l40.481-0.258v-39.878h38.943v-37.606h38.563v-37.595h39.944l-0.188-38.595h42.549l0.744-38.594h41.549
	l0.745-37.65h41.549c0,0,0.289-41.461,0.289-41.71c-0.227,0,0-0.013,0,0c13.454,0,26.91,0,40.305,0c0-40.302,0-77.927,0-115.414
	C769.518,54.98,731.856,54.98,693.334,54.98z"/>
<g>
	<path fill-rule="evenodd" clip-rule="evenodd" fill="#FFFFFF" d="M369.002,598.115c-0.021,12.728-0.042,25.456-0.062,38.184
		c-26.833,0.025-53.664,0.051-80.495,0.074c0-12.756,0-25.514,0-38.271C315.296,598.105,342.15,598.11,369.002,598.115z"/>
	<path fill-rule="evenodd" clip-rule="evenodd" fill="#FFFFFF" d="M213.304,480.666c12.742-0.017,25.484-0.032,38.224-0.049
		c0,26.856,0,53.712,0,80.568c-12.756,0-25.514,0-38.27,0C213.271,534.346,213.288,507.506,213.304,480.666z"/>
	<path fill-rule="evenodd" clip-rule="evenodd" fill="#FFFFFF" d="M250.851,560.506c12.742,0.017,25.483,0.032,38.226,0.049
		c0.016,12.742,0.032,25.483,0.048,38.226c-11.966,0-23.933,0-38.274,0C250.851,584.404,250.851,572.454,250.851,560.506z"/>
	<path fill-rule="evenodd" clip-rule="evenodd" fill="#FFFFFF" d="M368.334,400.729c11.608,0,23.219,0,37.595,0
		c0-13.208,0-25.401,0-37.595c13.173,0,26.344,0,42.294,0c0-13.229,0-25.41,0-37.595c11.611,0,23.222,0,37.595,0
		c0-14.761,0-28.529,0-42.294c11.608,0,23.22,0,37.595,0c0-13.208,0-25.401,0-37.595c13.174,0,26.345,0,42.294,0
		c0-13.229,0-25.411,0-37.595c13.196,0,26.391,0,42.295,0c0-13.134,0-25.365,0-37.595c13.196,0,26.39,0,42.294,0
		c0-13.134,0-25.365,0-37.595c13.166,0,26.335,0,42.294,0c0-13.229,0-25.411,0-37.593c23.948,0,47.896,0,75.868,0
		c0,26.838,0,51.351,0,75.867c-13.196,0-26.39,0-42.294,0c0,13.134,0,25.364,0,37.595c-13.169,0-26.335,0-42.294,0
		c0,13.228,0,25.41,0,37.595c-13.169,0-26.335,0-42.294,0c0,13.228,0,25.41,0,37.595c-11.61,0-23.222,0-37.595,0
		c0,14.761,0,28.529,0,42.294c-11.608,0-23.219,0-37.595,0c0,13.208,0,25.401,0,37.595c-13.174,0-26.345,0-42.294,0
		c0,13.229,0,25.411,0,37.595c-11.611,0-23.222,0-37.595,0c0,14.761,0,28.529,0,42.294c-11.608,0-23.22,0-37.595,0
		c0,13.208,0,25.401,0,37.595c-13.174,0-26.345,0-42.294,0c0,13.229,0,25.41,0,37.595c-11.615,0-23.23,0-37.595,0
		c0,14.761,0,28.526,0,42.294c-26.852-0.005-53.703-0.009-80.554-0.014c-0.005-26.852-0.009-53.703-0.012-80.555
		c13.173,0,26.347,0,42.292,0c0-13.229,0-25.41,0-37.595c11.611,0,23.221,0,37.595,0
		C368.334,428.262,368.334,414.494,368.334,400.729z"/>
</g>
<g>
	<g>
		<path fill="#939598" d="M132.52,717.73c0,11.852,0,21.842,0,33.565c-11.471,0-22.563,0-34.809,0c0-11.149,0-21.695,0-33.565
			C109.06,717.73,119.602,717.73,132.52,717.73z"/>
		<rect x="687.862" y="133.255" fill-rule="evenodd" clip-rule="evenodd" fill="#808285" width="41.549" height="41.549"/>
		<rect x="645.568" y="170.905" fill-rule="evenodd" clip-rule="evenodd" fill="#808285" width="41.549" height="41.549"/>
		<rect x="603.275" y="209.499" fill-rule="evenodd" clip-rule="evenodd" fill="#808285" width="41.549" height="41.549"/>
		<rect x="560.914" y="248.094" fill-rule="evenodd" clip-rule="evenodd" fill="#808285" width="41.549" height="41.549"/>
		<rect x="520.97" y="285.688" fill-rule="evenodd" clip-rule="evenodd" fill="#808285" width="41.549" height="41.549"/>
		<rect x="482.406" y="323.294" fill-rule="evenodd" clip-rule="evenodd" fill="#808285" width="41.549" height="41.549"/>
		<rect x="443.463" y="363.172" fill-rule="evenodd" clip-rule="evenodd" fill="#808285" width="41.549" height="41.549"/>
		<rect x="403.486" y="400.833" fill-rule="evenodd" clip-rule="evenodd" fill="#808285" width="41.549" height="41.549"/>
		<rect x="366.924" y="439.801" fill-rule="evenodd" clip-rule="evenodd" fill="#808285" width="41.549" height="41.549"/>
		<rect x="325.98" y="479.656" fill-rule="evenodd" clip-rule="evenodd" fill="#808285" width="41.549" height="41.549"/>
	</g>
	<rect x="289.159" y="518.213" fill-rule="evenodd" clip-rule="evenodd" fill="#808285" width="41.549" height="41.549"/>
	<rect x="367.663" y="636.369" fill-rule="evenodd" clip-rule="evenodd" fill="#808285" width="41.549" height="41.549"/>
	<rect x="329.102" y="596.443" fill-rule="evenodd" clip-rule="evenodd" fill="#808285" width="41.549" height="41.549"/>
	<rect x="171.674" y="441.352" fill-rule="evenodd" clip-rule="evenodd" fill="#808285" width="41.549" height="41.549"/>
	<rect x="211.618" y="479.98" fill-rule="evenodd" clip-rule="evenodd" fill="#808285" width="41.549" height="41.549"/>
</g>
<polygon fill-rule="evenodd" clip-rule="evenodd" fill="#8B5E3C" points="210.618,596.78 210.618,638.329 170.674,638.329 
	170.674,679.877 131.52,679.877 131.52,721.426 173.069,721.426 173.069,679.878 212.223,679.878 212.223,638.329 252.167,638.329 
	252.167,596.78 "/>
</svg>
