<svg id="Layer_2" xmlns="http://www.w3.org/2000/svg" width="864" height="864" viewBox="0 0 864 864"><path fill-rule="evenodd" clip-rule="evenodd" d="M693.334 54.98c0 14.449-.745 38.97-.745 38.97H651.04v37.939c-.045 0-.745-.289-.745-.289h-41.549v38.071l-42.293.522v38.26c-.188 0-42.361.334-42.361.334s-.47 37.448-.705 37.448c0 .382-39.239.146-39.239.146v37.606h-38.563v39.878h-38.943v37.662h-39.978v38.966h-36.562l-.351 39.856h-40.592v39.033h-36.991v-36.96h-38.856v-40.118h-78.081v78.363h35.765l.679 83.403h42.549l-.221 35.689h-41.502l-.838 37.507-37.989.523v40.762H55.515v115.262h116.603v-78.716h40.24l.281-38.151 39.007.026v-41.347h36.801c0 .248.549 41.133.549 41.133h80.089l-.125 37.931h78.067v-78.372h-37.698l-.115-39.857h-38.728v-37.958h35.802v-39.855h40.943l.274-38.587 36.287-.38-.504-37.403 40.481-.258v-39.878h38.943v-37.606h38.563V326.94h39.944l-.188-38.595h42.549l.744-38.594h41.549l.745-37.65h41.549s.289-41.461.289-41.71c-.227 0 0-.013 0 0h40.305V54.977c-39.243.003-76.905.003-115.427.003z"/><g fill-rule="evenodd" clip-rule="evenodd" fill="#FFF"><path d="M369.002 598.115l-.062 38.184c-26.833.025-53.664.051-80.495.074v-38.271c26.851.003 53.705.008 80.557.013zM213.304 480.666l38.224-.049v80.568h-38.27c.013-26.839.03-53.679.046-80.519z"/><path d="M250.851 560.506l38.226.049.048 38.226h-38.274v-38.275z"/><path d="M368.334 400.729h37.595v-37.595h42.294v-37.595h37.595v-42.294h37.595V245.65h42.294v-37.595h42.295V170.46h42.294v-37.595h42.294V95.272h75.868v75.867h-42.294v37.595H683.87v37.595h-42.294v37.595h-37.595v42.294h-37.595v37.595h-42.294v37.595h-37.595v42.294h-37.595v37.595h-42.294v37.595h-37.595v42.294l-80.554-.014c-.005-26.852-.009-53.703-.012-80.555h42.292v-37.595h37.595v-42.293z"/></g><path fill="#939598" d="M132.52 717.73v33.565H97.711V717.73h34.809z"/><path fill-rule="evenodd" clip-rule="evenodd" fill="#808285" d="M687.862 133.255h41.549v41.549h-41.549zM645.568 170.905h41.549v41.549h-41.549zM603.275 209.499h41.549v41.549h-41.549zM560.914 248.094h41.549v41.549h-41.549z"/><path fill-rule="evenodd" clip-rule="evenodd" fill="#808285" d="M520.97 285.688h41.549v41.549H520.97z"/><path fill-rule="evenodd" clip-rule="evenodd" fill="#808285" d="M482.406 323.294h41.549v41.549h-41.549z"/><path fill-rule="evenodd" clip-rule="evenodd" fill="#808285" d="M443.463 363.172h41.549v41.549h-41.549z"/><path fill-rule="evenodd" clip-rule="evenodd" fill="#808285" d="M403.486 400.833h41.549v41.549h-41.549z"/><path fill-rule="evenodd" clip-rule="evenodd" fill="#808285" d="M366.924 439.801h41.549v41.549h-41.549z"/><path fill-rule="evenodd" clip-rule="evenodd" fill="#808285" d="M325.98 479.656h41.549v41.549H325.98z"/><path fill-rule="evenodd" clip-rule="evenodd" fill="#808285" d="M289.159 518.213h41.549v41.549h-41.549zM367.663 636.369h41.549v41.549h-41.549z"/><path fill-rule="evenodd" clip-rule="evenodd" fill="#808285" d="M329.102 596.443h41.549v41.549h-41.549zM171.674 441.352h41.549v41.549h-41.549z"/><path fill-rule="evenodd" clip-rule="evenodd" fill="#808285" d="M211.618 479.98h41.549v41.549h-41.549z"/><path fill-rule="evenodd" clip-rule="evenodd" fill="#8B5E3C" d="M210.618 596.78v41.549h-39.944v41.548H131.52v41.549h41.549v-41.548h39.154v-41.549h39.944V596.78z"/></svg>